<svg viewBox="0 0 400 300" xmlns="http://www.w3.org/2000/svg"><path d="m220.28 162.2h17.42a30.7 30.7 0 0 1 29.3 21.7l9.41 30.69a7.33 7.33 0 0 1 -7 9.49h-80.9a7.33 7.33 0 0 1 -7-9.49l9.41-30.69a30.7 30.7 0 0 1 29.36-21.7z" fill="#68e1fd"/><path d="m269.44 225.08h-80.9a8.34 8.34 0 0 1 -8-10.78l9.46-30.69a31.54 31.54 0 0 1 30.3-22.41h17.4a31.54 31.54 0 0 1 30.3 22.41l9.41 30.69a8.34 8.34 0 0 1 -8 10.78zm-49.16-61.88a29.55 29.55 0 0 0 -28.39 21l-9.41 30.69a6.35 6.35 0 0 0 6.06 8.2h80.9a6.35 6.35 0 0 0 6.06-8.2l-9.41-30.69a29.55 29.55 0 0 0 -28.39-21z" fill="#093f68"/><path d="m223.67 158.74h10.64a0 0 0 0 1 0 0v6.12a4.52 4.52 0 0 1 -4.52 4.52h-1.61a4.52 4.52 0 0 1 -4.52-4.52v-6.12a0 0 0 0 1 .01 0z" fill="#ffc9b0"/><path d="m229.79 170.37h-1.6a5.52 5.52 0 0 1 -5.52-5.51v-6.12a1 1 0 0 1 1-1h10.64a1 1 0 0 1 1 1v6.12a5.52 5.52 0 0 1 -5.52 5.51zm-5.12-10.63v5.12a3.52 3.52 0 0 0 3.52 3.51h1.6a3.52 3.52 0 0 0 3.52-3.51v-5.12z" fill="#093f68"/><path d="m192.27 129.23c-4.94-1.87-4.64-5.65-5.38-10.49a123.35 123.35 0 0 1 -1.37-14.48c-.19-5.51 0-11.17 2.1-16.28 2.69-6.57 8-10.81 15.09-10.23-.21-9.68 5.6-18.76 15.89-19.31 16.49-.88 26 16.83 35.21 15.51s11.68-5.42 11.68-5.42a16.92 16.92 0 0 1 -2 18.67s7.27-2.12 8.15 7.55-4.91 35.37-4.91 35.37l-6.57-1.12c-2.77-.49-6.23.19-9 .28l-20.61.64c-10.34.29-27.06 3.55-38.28-.69z" fill="#725858"/><path d="m207.13 132.38c-5.42 0-10.75-.53-15.22-2.22-4.79-1.82-5.23-5.28-5.74-9.29q-.12-1-.27-2a125 125 0 0 1 -1.38-14.6c-.18-5.17-.06-11.21 2.18-16.68 2.85-7 8.17-10.91 14.7-10.91h.31c.22-9.31 5.93-18.68 16.84-19.26 9.59-.5 17 5.09 22.92 9.58 4.58 3.47 8.54 6.46 12.19 5.94 8.55-1.22 11-4.91 11-4.95a1 1 0 0 1 .86-.47 1 1 0 0 1 .86.49c.05.09 5.06 8.92-.76 18a6.83 6.83 0 0 1 3.48 1.14c2 1.4 3.25 3.92 3.57 7.51.89 9.72-4.68 34.62-4.92 35.68a1 1 0 0 1 -1.15.76l-6.6-1.1a23.69 23.69 0 0 0 -5.87.08c-1 .1-2 .19-3 .22l-20.61.64c-2.57.08-5.59.35-8.78.63-4.51.36-9.6.81-14.61.81zm-14.51-4.09c8.18 3.1 19.71 2.07 29 1.24 3.22-.29 6.27-.56 8.9-.64l20.61-.64c.87 0 1.82-.12 2.82-.21a25 25 0 0 1 6.4-.06c.35 0 1.49.25 5.65 1 1-4.68 5.44-25.75 4.68-34.13-.27-3-1.17-5-2.69-6a5.46 5.46 0 0 0 -4.18-.66 1 1 0 0 1 -1.11-.41 1 1 0 0 1 .06-1.18 15.72 15.72 0 0 0 2.5-16.24c-1.53 1.44-4.86 3.69-11.29 4.61-4.48.63-8.75-2.59-13.69-6.32-6-4.53-12.75-9.65-21.6-9.18-10.06.53-15.14 9.61-14.95 18.29a1 1 0 0 1 -.32.75 1 1 0 0 1 -.77.27c-6.24-.52-11.37 3-14.07 9.61-2.09 5.13-2.2 10.9-2 15.86a123 123 0 0 0 1.35 14.36c.11.71.2 1.38.28 2 .48 3.78.8 6.28 4.47 7.67z" fill="#093f68"/><ellipse cx="198.59" cy="131.11" fill="#ffc9b0" rx="10.33" ry="8.9"/><path d="m198.59 141c-6.25 0-11.33-4.44-11.33-9.9s5.08-9.91 11.33-9.91 11.34 4.45 11.34 9.91-5.09 9.9-11.34 9.9zm0-17.81c-5.14 0-9.33 3.55-9.33 7.91s4.19 7.9 9.33 7.9 9.34-3.54 9.34-7.9-4.19-7.9-9.34-7.9z" fill="#093f68"/><ellipse cx="258.84" cy="131.11" fill="#ffc9b0" rx="10.33" ry="8.9"/><path d="m258.84 141c-6.25 0-11.34-4.44-11.34-9.9s5.09-9.91 11.34-9.91 11.33 4.45 11.33 9.91-5.08 9.9-11.33 9.9zm0-17.81c-5.15 0-9.34 3.55-9.34 7.91s4.19 7.9 9.34 7.9 9.33-3.54 9.33-7.9-4.17-7.9-9.33-7.9z" fill="#093f68"/><path d="m229 160.13a31.17 31.17 0 0 1 -31.18-31.13v-22.66c1.82 3 7.87 1.8 16.74-13.41 33.2 16.82 45.6 7.18 45.6 7.18v28.89a31.17 31.17 0 0 1 -31.16 31.13z" fill="#ffc9b0"/><path d="m229 161.13a32.2 32.2 0 0 1 -32.18-32.13v-22.66a1 1 0 0 1 1.86-.52 1.66 1.66 0 0 0 1.53.83c1.22 0 5.8-1.07 13.47-14.23a1 1 0 0 1 1.32-.42c32.08 16.25 44.42 7.37 44.54 7.28a1 1 0 0 1 1.61.8v28.92a32.2 32.2 0 0 1 -32.15 32.13zm-30.17-52.72v20.59a30.17 30.17 0 0 0 60.34 0v-27.17c-4.32 2-17.59 5.68-44.21-7.59-5.52 9.27-10.73 14.38-14.7 14.41a3.44 3.44 0 0 1 -1.44-.24z" fill="#093f68"/><path d="m249 216.72a1 1 0 0 1 -1-1v-36.58a1 1 0 0 1 2 0v36.58a1 1 0 0 1 -1 1z" fill="#093f68"/><path d="m209 216.72a1 1 0 0 1 -1-1v-36.58a1 1 0 0 1 2 0v36.58a1 1 0 0 1 -1 1z" fill="#093f68"/><path d="m228.92 134.69a20.75 20.75 0 0 1 -3.13-.26 1 1 0 0 1 .35-2 15.28 15.28 0 0 0 4.75 0c.2-.92-1-4.35-2.7-7.58a1 1 0 1 1 1.81-.85c1.12 2.15 3.63 7.37 2.71 9.42a1.72 1.72 0 0 1 -1.16 1 10.74 10.74 0 0 1 -2.63.27z" fill="#093f68"/><path d="m222 110.73h-15.28a2 2 0 1 1 0-4h15.29a2 2 0 0 1 0 4z" fill="#093f68"/><path d="m250.25 110.73h-15.28a2 2 0 1 1 0-4h15.28a2 2 0 0 1 0 4z" fill="#093f68"/><path d="m205.39 116.21h18a2.56 2.56 0 0 1 2.56 2.56v1.67a8.63 8.63 0 0 1 -8.63 8.63h-5.87a8.63 8.63 0 0 1 -8.63-8.63v-1.67a2.56 2.56 0 0 1 2.57-2.56z" fill="#fff"/><path d="m217.33 130.08h-5.86a9.64 9.64 0 0 1 -9.63-9.63v-1.68a3.56 3.56 0 0 1 3.55-3.56h18a3.57 3.57 0 0 1 3.56 3.56v1.68a9.64 9.64 0 0 1 -9.62 9.63zm-11.94-12.87a1.55 1.55 0 0 0 -1.55 1.56v1.68a7.64 7.64 0 0 0 7.63 7.63h5.86a7.65 7.65 0 0 0 7.64-7.63v-1.68a1.56 1.56 0 0 0 -1.56-1.56z" fill="#093f68"/><path d="m234.45 116.21h18a2.56 2.56 0 0 1 2.56 2.56v1.67a8.63 8.63 0 0 1 -8.63 8.63h-5.87a8.63 8.63 0 0 1 -8.63-8.63v-1.67a2.56 2.56 0 0 1 2.57-2.56z" fill="#fff"/><g fill="#093f68"><path d="m246.39 130.08h-5.86a9.64 9.64 0 0 1 -9.64-9.63v-1.68a3.57 3.57 0 0 1 3.56-3.56h18a3.56 3.56 0 0 1 3.55 3.56v1.68a9.64 9.64 0 0 1 -9.61 9.63zm-11.94-12.87a1.56 1.56 0 0 0 -1.56 1.56v1.68a7.65 7.65 0 0 0 7.64 7.63h5.86a7.64 7.64 0 0 0 7.63-7.63v-1.68a1.55 1.55 0 0 0 -1.55-1.56z"/><path d="m202.84 121.45h-5.84a1 1 0 0 1 0-2h5.81a1 1 0 0 1 0 2z"/><path d="m261.12 121.45h-5.8a1 1 0 0 1 0-2h5.8a1 1 0 0 1 0 2z"/><path d="m231.89 121.45h-5.89a1 1 0 0 1 0-2h5.92a1 1 0 0 1 0 2z"/><path d="m228.33 144.33a28.87 28.87 0 0 1 -10.44-1.91 1 1 0 0 1 .72-1.87 29.23 29.23 0 0 0 19.77 0 1 1 0 0 1 .77 1.85 30.56 30.56 0 0 1 -10.82 1.93z"/><path d="m256.41 208.32a1 1 0 0 1 -1-.8 1 1 0 0 1 .78-1.18l11.06-2.26a1 1 0 0 1 .4 2l-11.06 2.25a.64.64 0 0 1 -.18-.01z"/><path d="m201.57 208.32a.64.64 0 0 1 -.2 0l-11.06-2.32a1 1 0 1 1 .4-2l11.06 2.26a1 1 0 0 1 .78 1.18 1 1 0 0 1 -.98.88z"/></g><path d="m200.76 187.36h56.34a4.78 4.78 0 0 1 4.78 4.78v32.86a0 0 0 0 1 0 0h-65.88a0 0 0 0 1 0 0v-32.86a4.78 4.78 0 0 1 4.76-4.78z" fill="#f56132"/><path d="m261.88 226h-65.88a1 1 0 0 1 -1-1v-32.86a5.78 5.78 0 0 1 5.78-5.78h56.32a5.78 5.78 0 0 1 5.78 5.78v32.86a1 1 0 0 1 -1 1zm-64.88-2h63.9v-31.86a3.79 3.79 0 0 0 -3.78-3.78h-56.36a3.79 3.79 0 0 0 -3.78 3.78z" fill="#093f68"/><path d="m192.78 225h72.31a0 0 0 0 1 0 0 4.82 4.82 0 0 1 -4.82 4.82h-62.67a4.82 4.82 0 0 1 -4.82-4.82 0 0 0 0 1 0 0z" fill="#f56132"/><path d="m260.26 230.84h-62.66a5.83 5.83 0 0 1 -5.82-5.82 1 1 0 0 1 1-1h72.3a1 1 0 0 1 1 1 5.83 5.83 0 0 1 -5.82 5.82zm-66.35-4.84a3.83 3.83 0 0 0 3.69 2.82h62.66a3.83 3.83 0 0 0 3.74-2.82z" fill="#093f68"/><path d="m228.19 188.36a1 1 0 0 1 -1-1v-18a1 1 0 0 1 2 0v18a1 1 0 0 1 -1 1z" fill="#093f68"/><path d="m133.36 200.91h28a0 0 0 0 1 0 0v19.74a9.19 9.19 0 0 1 -9.19 9.19h-9.62a9.19 9.19 0 0 1 -9.19-9.19v-19.74a0 0 0 0 1 0 0z" fill="#ffbc0e"/><path d="m152.17 230.84h-9.62a10.2 10.2 0 0 1 -10.19-10.19v-19.74a1 1 0 0 1 1-1h28a1 1 0 0 1 1 1v19.74a10.2 10.2 0 0 1 -10.19 10.19zm-17.81-28.93v18.74a8.19 8.19 0 0 0 8.19 8.19h9.62a8.2 8.2 0 0 0 8.19-8.19v-18.74z" fill="#093f68"/><rect fill="#725858" height="11.75" rx="5.88" width="178.98" x="110.51" y="229.84"/><path d="m283.61 242.59h-167.22a6.88 6.88 0 1 1 0-13.75h167.22a6.88 6.88 0 1 1 0 13.75zm-167.22-11.75a4.88 4.88 0 1 0 0 9.75h167.22a4.88 4.88 0 1 0 0-9.75z" fill="#093f68"/><path d="m163 221h-1.63a1 1 0 0 1 -1-1v-15.87a1 1 0 0 1 1-1h1.63a9 9 0 1 1 0 17.87zm-.63-2h.63a7 7 0 1 0 0-13.91h-.63z" fill="#093f68"/><rect fill="#fff" height="54.07" rx="2.5" width="64.28" x="113.22" y="112.98"/><path d="m175 168.05h-59.29a3.5 3.5 0 0 1 -3.49-3.5v-49.08a3.49 3.49 0 0 1 3.49-3.49h59.29a3.5 3.5 0 0 1 3.5 3.49v49.08a3.5 3.5 0 0 1 -3.5 3.5zm-59.29-54.05a1.49 1.49 0 0 0 -1.49 1.49v49.08a1.5 1.5 0 0 0 1.49 1.5h59.29a1.5 1.5 0 0 0 1.5-1.5v-49.1a1.5 1.5 0 0 0 -1.5-1.47z" fill="#093f68"/><path d="m115.71 113h59.29a2.5 2.5 0 0 1 2.5 2.5v4.33a0 0 0 0 1 0 0h-64.28a0 0 0 0 1 0 0v-4.33a2.5 2.5 0 0 1 2.49-2.5z" fill="#68e1fd"/><path d="m177.5 120.81h-64.28a1 1 0 0 1 -1-1v-4.34a3.49 3.49 0 0 1 3.49-3.49h59.29a3.5 3.5 0 0 1 3.5 3.49v4.34a1 1 0 0 1 -1 1zm-63.28-2h62.28v-3.34a1.5 1.5 0 0 0 -1.5-1.47h-59.29a1.49 1.49 0 0 0 -1.49 1.49z" fill="#093f68"/><circle cx="118.21" cy="116.39" fill="#093f68" r="1.34"/><circle cx="121.96" cy="116.39" fill="#093f68" r="1.34"/><circle cx="125.72" cy="116.39" fill="#093f68" r="1.34"/><path d="m137.09 138.65-9.25 4.22v.07l9.25 4.22v4.62l-14.77-6.73v-4.29l14.77-6.76z" fill="#093f68"/><path d="m148.06 127.33 3.32 1.19-8.75 26.48-3.3-1.19z" fill="#093f68"/><path d="m153.63 147.16 9.25-4.22v-.07l-9.25-4.22v-4.65l14.76 6.73v4.29l-14.76 6.73z" fill="#093f68"/></svg>